<svg xmlns="http://www.w3.org/2000/svg" xmlns:xlink="http://www.w3.org/1999/xlink" width="500" zoomAndPan="magnify" viewBox="0 0 375 374.999991" height="500" preserveAspectRatio="xMidYMid meet" version="1.0"><defs><g/></defs><g fill="#000000" fill-opacity="1"><g transform="translate(7.453129, 218.999986)"><g><path d="M 51.03125 -63.1875 L 51.03125 -50.84375 L 34.296875 -50.84375 L 34.296875 0 L 18.90625 0 L 18.90625 -50.84375 L 2.15625 -50.84375 L 2.15625 -63.1875 Z M 51.03125 -63.1875 "/></g></g></g><g fill="#000000" fill-opacity="1"><g transform="translate(60.643078, 218.999986)"><g><path d="M 20.96875 -41.84375 C 22.769531 -44.601562 25.019531 -46.78125 27.71875 -48.375 C 30.414062 -49.96875 33.414062 -50.765625 36.71875 -50.765625 L 36.71875 -34.46875 L 32.484375 -34.46875 C 28.648438 -34.46875 25.769531 -33.640625 23.84375 -31.984375 C 21.925781 -30.335938 20.96875 -27.445312 20.96875 -23.3125 L 20.96875 0 L 5.578125 0 L 5.578125 -50.21875 L 20.96875 -50.21875 Z M 20.96875 -41.84375 "/></g></g></g><g fill="#000000" fill-opacity="1"><g transform="translate(99.163042, 218.999986)"><g><path d="M 13.3125 -55.4375 C 10.613281 -55.4375 8.410156 -56.226562 6.703125 -57.8125 C 4.992188 -59.40625 4.140625 -61.375 4.140625 -63.71875 C 4.140625 -66.113281 4.992188 -68.109375 6.703125 -69.703125 C 8.410156 -71.296875 10.613281 -72.09375 13.3125 -72.09375 C 15.957031 -72.09375 18.132812 -71.296875 19.84375 -69.703125 C 21.550781 -68.109375 22.40625 -66.113281 22.40625 -63.71875 C 22.40625 -61.375 21.550781 -59.40625 19.84375 -57.8125 C 18.132812 -56.226562 15.957031 -55.4375 13.3125 -55.4375 Z M 20.96875 -50.21875 L 20.96875 0 L 5.578125 0 L 5.578125 -50.21875 Z M 20.96875 -50.21875 "/></g></g></g><g fill="#000000" fill-opacity="1"><g transform="translate(125.713013, 218.999986)"><g><path d="M 20.96875 -43.109375 C 22.46875 -45.453125 24.535156 -47.34375 27.171875 -48.78125 C 29.816406 -50.21875 32.910156 -50.9375 36.453125 -50.9375 C 40.585938 -50.9375 44.332031 -49.882812 47.6875 -47.78125 C 51.050781 -45.6875 53.707031 -42.6875 55.65625 -38.78125 C 57.613281 -34.882812 58.59375 -30.359375 58.59375 -25.203125 C 58.59375 -20.035156 57.613281 -15.488281 55.65625 -11.5625 C 53.707031 -7.632812 51.050781 -4.601562 47.6875 -2.46875 C 44.332031 -0.34375 40.585938 0.71875 36.453125 0.71875 C 32.972656 0.71875 29.894531 0 27.21875 -1.4375 C 24.550781 -2.875 22.46875 -4.734375 20.96875 -7.015625 L 20.96875 23.9375 L 5.578125 23.9375 L 5.578125 -50.21875 L 20.96875 -50.21875 Z M 42.9375 -25.203125 C 42.9375 -29.035156 41.867188 -32.046875 39.734375 -34.234375 C 37.609375 -36.429688 34.984375 -37.53125 31.859375 -37.53125 C 28.796875 -37.53125 26.195312 -36.421875 24.0625 -34.203125 C 21.9375 -31.984375 20.875 -28.953125 20.875 -25.109375 C 20.875 -21.265625 21.9375 -18.234375 24.0625 -16.015625 C 26.195312 -13.796875 28.796875 -12.6875 31.859375 -12.6875 C 34.921875 -12.6875 37.53125 -13.8125 39.6875 -16.0625 C 41.851562 -18.3125 42.9375 -21.359375 42.9375 -25.203125 Z M 42.9375 -25.203125 "/></g></g></g><g fill="#000000" fill-opacity="1"><g transform="translate(186.822948, 218.999986)"><g><path d="M 26.015625 0.71875 C 21.628906 0.71875 17.726562 -0.03125 14.3125 -1.53125 C 10.894531 -3.03125 8.191406 -5.082031 6.203125 -7.6875 C 4.222656 -10.300781 3.113281 -13.226562 2.875 -16.46875 L 18.09375 -16.46875 C 18.269531 -14.726562 19.078125 -13.316406 20.515625 -12.234375 C 21.960938 -11.160156 23.734375 -10.625 25.828125 -10.625 C 27.742188 -10.625 29.226562 -11 30.28125 -11.75 C 31.332031 -12.5 31.859375 -13.472656 31.859375 -14.671875 C 31.859375 -16.109375 31.109375 -17.171875 29.609375 -17.859375 C 28.109375 -18.554688 25.675781 -19.320312 22.3125 -20.15625 C 18.71875 -21 15.71875 -21.882812 13.3125 -22.8125 C 10.914062 -23.738281 8.847656 -25.207031 7.109375 -27.21875 C 5.367188 -29.226562 4.5 -31.945312 4.5 -35.375 C 4.5 -38.25 5.289062 -40.867188 6.875 -43.234375 C 8.46875 -45.609375 10.8125 -47.484375 13.90625 -48.859375 C 17 -50.242188 20.675781 -50.9375 24.9375 -50.9375 C 31.226562 -50.9375 36.1875 -49.375 39.8125 -46.25 C 43.445312 -43.132812 45.535156 -39 46.078125 -33.84375 L 31.859375 -33.84375 C 31.617188 -35.582031 30.851562 -36.960938 29.5625 -37.984375 C 28.269531 -39.003906 26.578125 -39.515625 24.484375 -39.515625 C 22.679688 -39.515625 21.300781 -39.164062 20.34375 -38.46875 C 19.382812 -37.78125 18.90625 -36.835938 18.90625 -35.640625 C 18.90625 -34.203125 19.664062 -33.117188 21.1875 -32.390625 C 22.71875 -31.671875 25.101562 -30.953125 28.34375 -30.234375 C 32.070312 -29.273438 35.101562 -28.332031 37.4375 -27.40625 C 39.78125 -26.476562 41.835938 -24.976562 43.609375 -22.90625 C 45.378906 -20.832031 46.289062 -18.054688 46.34375 -14.578125 C 46.34375 -11.640625 45.519531 -9.015625 43.875 -6.703125 C 42.226562 -4.390625 39.859375 -2.570312 36.765625 -1.25 C 33.671875 0.0625 30.085938 0.71875 26.015625 0.71875 Z M 26.015625 0.71875 "/></g></g></g><g fill="#000000" fill-opacity="1"><g transform="translate(237.042881, 218.999986)"><g><path d="M 33.5625 -13.046875 L 33.5625 0 L 25.734375 0 C 20.160156 0 15.8125 -1.363281 12.6875 -4.09375 C 9.570312 -6.820312 8.015625 -11.273438 8.015625 -17.453125 L 8.015625 -37.4375 L 1.890625 -37.4375 L 1.890625 -50.21875 L 8.015625 -50.21875 L 8.015625 -62.453125 L 23.40625 -62.453125 L 23.40625 -50.21875 L 33.484375 -50.21875 L 33.484375 -37.4375 L 23.40625 -37.4375 L 23.40625 -17.28125 C 23.40625 -15.78125 23.765625 -14.695312 24.484375 -14.03125 C 25.203125 -13.375 26.398438 -13.046875 28.078125 -13.046875 Z M 33.5625 -13.046875 "/></g></g></g><g fill="#000000" fill-opacity="1"><g transform="translate(273.582857, 218.999986)"><g><path d="M 52.921875 -25.921875 C 52.921875 -24.484375 52.832031 -22.984375 52.65625 -21.421875 L 17.8125 -21.421875 C 18.0625 -18.296875 19.066406 -15.910156 20.828125 -14.265625 C 22.597656 -12.617188 24.773438 -11.796875 27.359375 -11.796875 C 31.203125 -11.796875 33.875 -13.414062 35.375 -16.65625 L 51.75 -16.65625 C 50.90625 -13.351562 49.390625 -10.378906 47.203125 -7.734375 C 45.015625 -5.097656 42.269531 -3.03125 38.96875 -1.53125 C 35.664062 -0.03125 31.976562 0.71875 27.90625 0.71875 C 22.976562 0.71875 18.59375 -0.328125 14.75 -2.421875 C 10.914062 -4.523438 7.914062 -7.523438 5.75 -11.421875 C 3.59375 -15.328125 2.515625 -19.890625 2.515625 -25.109375 C 2.515625 -30.328125 3.578125 -34.882812 5.703125 -38.78125 C 7.835938 -42.6875 10.828125 -45.6875 14.671875 -47.78125 C 18.515625 -49.882812 22.925781 -50.9375 27.90625 -50.9375 C 32.757812 -50.9375 37.078125 -49.914062 40.859375 -47.875 C 44.640625 -45.832031 47.59375 -42.921875 49.71875 -39.140625 C 51.851562 -35.367188 52.921875 -30.960938 52.921875 -25.921875 Z M 37.171875 -29.96875 C 37.171875 -32.613281 36.269531 -34.710938 34.46875 -36.265625 C 32.664062 -37.828125 30.414062 -38.609375 27.71875 -38.609375 C 25.132812 -38.609375 22.957031 -37.859375 21.1875 -36.359375 C 19.425781 -34.859375 18.332031 -32.726562 17.90625 -29.96875 Z M 37.171875 -29.96875 "/></g></g></g><g fill="#000000" fill-opacity="1"><g transform="translate(329.022795, 218.999986)"><g><path d="M 20.96875 -41.84375 C 22.769531 -44.601562 25.019531 -46.78125 27.71875 -48.375 C 30.414062 -49.96875 33.414062 -50.765625 36.71875 -50.765625 L 36.71875 -34.46875 L 32.484375 -34.46875 C 28.648438 -34.46875 25.769531 -33.640625 23.84375 -31.984375 C 21.925781 -30.335938 20.96875 -27.445312 20.96875 -23.3125 L 20.96875 0 L 5.578125 0 L 5.578125 -50.21875 L 20.96875 -50.21875 Z M 20.96875 -41.84375 "/></g></g></g></svg>